<svg width="63" height="54" viewBox="0 0 63 54" fill="none" xmlns="http://www.w3.org/2000/svg">
<rect x="5.69189" y="5" width="51.7654" height="44" rx="8" stroke="#3D3D3D" stroke-width="4"/>
<path d="M4.68457 40.653C4.68457 33.1507 4.68457 25.6485 4.68457 18.1462C4.68457 16.1864 4.92031 14.2763 5.23773 12.3353C5.46132 10.968 5.53363 9.40997 6.1781 8.14321C6.99371 6.54005 7.26037 5.96287 9.04069 5.09882C10.5736 4.35483 12.5782 4.33772 14.2819 4.33772C16.7895 4.33772 19.2972 4.33772 21.8048 4.33772C31.5693 4.33772 41.2246 3.46789 50.9839 3.46789C52.0214 3.46789 53.5073 3.21703 54.4688 3.63703C54.8723 3.81324 56.2718 4.17052 56.4602 4.45853C56.8505 5.05512 57.5735 5.4387 57.8984 6.07737C58.1407 6.55362 57.9537 7.40691 57.9537 7.92576C57.9537 9.37942 57.4559 10.7859 57.4559 12.2749C57.4559 13.9783 57.4559 15.6817 57.4559 17.3851C57.4559 19.4475 56.9581 21.5403 56.9581 23.5222C56.9581 25.6807 56.9581 27.8391 56.9581 29.9976C56.9581 32.6066 57.207 35.068 57.207 37.6086" stroke="#3D3D3D" stroke-width="6" stroke-linecap="round"/>
<path d="M4.93353 38.9133C4.93353 40.3619 3.24323 42.069 4.38038 43.3108C5.05995 44.0529 5.8526 45.2327 6.37175 46.0894C7.51717 47.9795 9.8839 47.9929 11.7927 48.4693C15.1902 49.3173 18.8755 49.4164 22.3719 49.7982C27.2602 50.332 32.4065 50.0036 37.3486 50.0036C41.5422 50.0036 45.5802 48.9007 49.7394 48.6989C51.8237 48.5977 60.9914 48.5608 59.0739 45.5457C57.9001 43.6999 58.0771 41.0665 57.7049 39.0341C57.5521 38.2002 57.3801 37.5225 56.7645 36.9079C56.449 36.5929 56.9581 37.7336 56.9581 38.1522C56.9581 39.2659 56.7092 40.279 56.7092 41.4141C56.7092 42.7356 57.4559 43.6995 57.4559 45.0021" stroke="#3D3D3D" stroke-width="6" stroke-linecap="round"/>
</svg>
