<svg width="172" height="142" viewBox="0 0 172 142" fill="none" xmlns="http://www.w3.org/2000/svg">
<path d="M164.803 71.5C164.803 108.102 129.133 138.5 84.1516 138.5C39.1703 138.5 3.5 108.102 3.5 71.5C3.5 34.8981 39.1703 4.5 84.1516 4.5C129.133 4.5 164.803 34.8981 164.803 71.5Z" stroke="black" stroke-width="5"/>
<path d="M54.0372 10.0515C54.2143 11.3233 55.9791 9.47353 56.3254 9.18655C57.5722 8.15337 56.974 10.0426 58.1921 9.24061C61.301 7.19383 63.6941 4.41164 66.803 2.37486C68.6191 1.18508 67.2234 3.16004 66.7729 3.69936C66.2501 4.32515 65.6461 4.727 66.7428 4.02372C67.3434 3.63856 66.1794 5.59746 66.9234 5.07791C67.9691 4.34774 66.8782 6.25381 67.3449 5.83477C67.6877 5.52703 68.798 3.895 69.2116 4.69949C69.7508 5.74836 72.6286 3.26126 73.4267 3.83451C74.4578 4.57503 73.369 4.47133 75.173 4.23997C77.4279 3.95076 77.3443 5.67258 78.6956 5.67258C79.3077 5.67258 81.1045 5.37547 81.5559 5.78071C82.6149 6.73153 81.1365 7.00002 83.6032 6.64568C86.2171 6.27021 87.6307 6.64568 90.0764 6.64568C91.4176 6.64568 98.2625 5.20457 98.4765 6.64568C98.594 7.43673 99.9821 6.10526 100.373 6.45647C101.234 7.22937 99.545 7.93369 101.849 7.51066C104.451 7.03276 106.147 6.4019 108.533 7.37551C110.277 8.08754 111.65 9.07843 113.621 9.07843C115.119 9.07843 114.279 9.45685 114.795 10.2678C115.258 10.9959 118.194 10.4944 119.07 10.5381C120.056 10.5872 123.27 10.9585 123.406 11.9977C123.538 13.0083 126.152 12.4165 126.868 12.268C127.478 12.1418 128.407 12.9708 129.367 12.9708C131.017 12.9708 130.656 13.0072 131.023 14.1602C131.23 14.8091 134.019 14.3373 134.666 14.5386C135.828 14.8996 135.002 16.141 135.449 16.8632C135.995 17.7449 137.694 17.2966 138.008 18.5661C138.197 19.3273 137.672 20.0692 138.701 20.3772C139.665 20.6659 142.374 20.3419 142.374 21.4854C142.374 22.168 142.773 25.0577 143.458 25.1346C144.41 25.2415 144 26.9503 144 27.5673C144 30.076 146.358 29.4242 147.793 31.0813C148.419 31.8038 148.877 34.7068 148.877 35.5954C148.877 38.2082 152.671 36.9335 152.671 39.731C152.671 41.2882 153.439 40.8856 154.718 41.2988C155.689 41.6127 155.117 42.409 156.163 42.6774C156.344 42.7238 157.902 43.1771 157.97 43.245C158.434 43.7081 157.595 45.3384 158.391 45.5426C160.319 46.0372 159.118 47.1665 160.8 48.1105C161.653 48.5892 161.193 49.468 161.372 50.1919C161.595 51.095 162.918 50.611 162.968 51.4082C163.111 53.7196 161.94 55.2672 162.396 57.5171C162.798 59.5047 160.953 62.2994 161.944 64.3018C162.834 66.0995 165.968 65.9032 164.714 68.4375C164.015 69.8485 165.135 71.0904 165.135 72.3299C165.135 74.2937 167.303 73.8936 167.303 75.7357C167.303 77.4103 166.761 78.9893 166.761 80.6012" stroke="black" stroke-width="4" stroke-linecap="round"/>
<path d="M163.879 79.6128C159.083 79.6128 168.224 82.6214 167.209 84.3805C166.401 85.7812 165.222 86.1954 167.643 86.7504C169.642 87.2086 171.055 88.0672 168.975 89.6501C166.98 91.1694 163.952 91.1226 162.517 93.2468C161.208 95.1864 159.802 97.0539 158.724 99.1297C158.207 100.125 157.873 101.702 156.87 102.392C156.166 102.876 154.745 104.511 153.569 104.985C151.646 105.76 149.693 103.331 150.441 106.212C151.457 110.122 149.174 111.642 145.952 114.214C143.945 115.816 142.409 117.333 140.421 118.563C139.115 119.372 138.893 120.655 137.525 119.26C136.118 117.825 137.134 120.088 135.208 120.654C133.189 121.248 131.12 120.277 129.243 120.794C128.391 121.028 129.438 123.436 128.345 124.028C124.626 126.042 121.039 126.448 119.165 130.803C117.823 133.921 118.268 133.241 115.516 133.535C115.094 133.581 112.743 135.487 112.301 136.045C110.311 138.559 109.045 136.785 107.378 135.18C106.932 134.751 107.03 135.981 106.944 136.212C106.685 136.903 106.004 136.825 105.38 136.825C104.119 136.825 99.1156 135.74 98.3138 136.435C98.0776 136.64 98.3562 137.363 97.8505 136.965C96.2716 135.721 95.0212 134.246 92.9853 133.647C89.5234 132.628 88.0028 133.947 85.3978 135.543C83.1245 136.936 77.571 135.053 75.0882 134.706C72.9201 134.403 72.0033 134.999 69.9334 135.822C68.4492 136.412 65.1286 139.738 63.5622 139.307C62.9853 139.148 63.2701 137.27 62.4618 136.825C61.4141 136.249 61.7444 135.075 61.0717 134.428C60.0665 133.46 55.9092 134.537 54.5268 134.205C53.2362 133.894 54.45 135.507 53.1078 135.794C51.9735 136.036 49.5393 134.588 48.9666 133.786C48.5245 133.167 47.5787 128.968 46.9973 129.019C45.2951 129.168 42.4322 132.631 41.495 129.186C41.158 127.947 41.108 126.743 40.8289 125.533C40.4409 123.852 37.0348 125.34 35.9347 124.474C35.0916 123.81 34.577 120.639 33.0387 121.379C30.3482 122.674 32.554 122.012 30.4324 120.877C29.5752 120.419 26.9747 121.43 26.8124 120.18C26.6197 118.696 27.5859 116.272 25.4803 116.723C23.5411 117.138 24.1771 116.036 24.1771 114.241C24.1771 110.328 22.0194 111.518 19.0802 113.126C16.5168 114.528 17.4005 111.541 17.4005 109.78C17.4005 107.551 15.6832 109.282 14.5625 108.665C13.1875 107.909 15.6286 104.274 13.2303 104.204C12.9067 104.195 11.44 104.786 11.2611 104.594C10.7497 104.047 11.1548 101.947 11.2611 101.304C11.527 99.6955 10.279 99.5061 10.1317 97.8751C9.8526 94.7854 10.2932 94.1676 7.26464 93.1074C5.44079 92.4688 6.65918 87.459 6.85921 86.2485C7.06607 84.9967 6.43528 85.193 5.41123 85.1333C3.99167 85.0504 4.3514 83.5272 4.36868 82.5124C4.38613 81.4875 5.77507 77.6053 4.07908 77.6053C1.37629 77.6053 3.78948 74.7671 3.78948 73.3952C3.78948 72.8995 3.06006 73.268 2.92069 72.8655C2.4074 71.3829 4.3012 68.4733 4.88995 67.1777C5.92462 64.9008 7.71757 62.6738 4.48452 62.5493C2.73861 62.4821 7.74713 55.0878 8.19135 54.3522C9.52685 52.1407 9.04454 50.5995 9.92893 48.6644C11.0469 46.2182 12.836 43.4 14.5046 41.248C16.0662 39.2338 17.6369 36.9497 19.4856 35.1698C20.1415 34.5383 20.7166 34.7653 21.397 34.1103C24.0433 31.5625 26.3942 28.5981 28.7238 25.7738C30.5734 23.5314 34.1218 17.4254 37.2669 17.0469C38.7824 16.8645 40.9129 13.1761 41.7846 12.1955C43.2685 10.5262 45.2865 7.79808 47.5186 6.95383C49.0814 6.36272 45.958 10.2507 48.5611 6.8423C50.2231 4.66622 49.7359 7.77454 50.0091 7.51146C52.1736 5.42752 51.1727 7.49614 52.934 6.56349C55.82 5.0353 59.106 4.49799 61.7088 2.82738" stroke="black" stroke-width="4" stroke-linecap="round"/>
<path d="M63.1427 36.396C63.1427 36.5824 63.714 37.0677 63.8725 37.0677C64.2859 37.0677 64.2133 37.0499 64.6428 37.3662C65.1736 37.757 65.635 37.8064 66.4672 37.9446C67.049 38.0411 67.7824 38.4175 68.0281 38.9521C68.2528 39.441 68.9029 39.4968 69.4268 39.6704C70.219 39.9329 70.6154 40.7286 71.2614 41.191C72.3075 41.9399 73.0138 42.2777 74.4338 42.4411C75.4803 42.5615 75.5307 43.211 76.3697 43.4486C77.2697 43.7035 77.812 44.2201 78.4678 44.792C79.2995 45.5172 80.1684 46.0527 81.245 46.4338C82.091 46.7333 83.0143 47.4362 83.7586 47.9451C84.6036 48.5228 85.5735 48.8059 86.4041 49.4004C86.7116 49.6206 87.4314 49.9615 87.7926 50.0908C88.3783 50.3004 88.9767 50.5288 89.5867 50.6691C89.9626 50.7556 90.0044 51.0848 90.3367 51.2569C90.8813 51.5388 91.5168 51.6343 92.0496 51.9285C92.3474 52.093 92.4965 52.3675 92.7794 52.5163C92.9918 52.628 93.1264 52.944 93.3368 53.0947C93.7997 53.426 94.4396 53.7028 94.9484 53.9902C95.7284 54.4308 96.4506 54.9768 97.2594 55.3709C97.8762 55.6715 98.3394 56.349 98.9419 56.5836C100.349 57.1317 101.923 58.0069 103.189 58.8132C105.402 60.2233 107.293 61.9661 109.665 63.0579C110.94 63.6444 112.328 64.4984 113.355 65.4088C114.538 66.4578 116.352 66.7643 117.612 67.713C119.685 69.2742 123.126 69.4201 124.626 71.4912" stroke="black" stroke-width="4" stroke-linecap="round"/>
<path d="M124.808 73.1704C122.579 73.1704 120.797 74.8567 118.828 75.484C117.916 75.7746 117.004 76.3844 116.193 76.8646C114.917 77.6192 113.533 78.1707 112.22 78.8423C110.517 79.713 108.921 80.7809 107.071 81.4358C104.68 82.282 102.553 83.8321 100.178 84.6822C98.6326 85.2355 97.431 86.4778 95.891 87.1077C95.0656 87.4454 94.2604 87.8948 93.5192 88.3671C92.9736 88.7148 91.5062 89.3244 91.2387 89.8784C90.9684 90.4383 89.8542 91.0001 89.3231 91.3803C88.6389 91.8702 87.6704 91.8616 86.9513 92.2293C86.3128 92.5558 85.596 92.6631 84.9242 92.901C84.4279 93.0766 82.6907 93.1036 82.4815 93.4887" stroke="black" stroke-width="4" stroke-linecap="round"/>
<path d="M82.4815 93.4887C81.6574 93.4887 80.6343 94.1845 79.9476 94.5708C79.2779 94.9475 78.5886 95.1924 77.9205 95.5877C77.2786 95.9675 76.7623 96.5224 76.0961 96.8471C75.5089 97.1332 74.9332 97.4368 74.4541 97.8546C73.5979 98.6011 72.5253 99.1009 71.6161 99.7857C70.8801 100.34 69.6443 101.272 68.7578 101.586C67.9665 101.866 66.6392 102.648 65.9807 103.144C65.2598 103.687 64.2637 104.082 63.5481 104.609C62.3862 105.464 62.7409 103.708 63.2339 103.153C63.7843 102.534 63.8724 101.659 63.8724 100.877C63.8724 96.3993 63.8724 91.9214 63.8724 87.4436C63.8724 83.7788 63.69 80.0834 63.69 76.3982C63.69 75.5626 63.5076 74.7787 63.5076 73.926C63.5076 73.2429 63.7409 72.0652 63.3251 71.4912" stroke="black" stroke-width="4" stroke-linecap="round"/>
<path d="M63.1427 71.4912C63.1427 70.1274 63.1128 68.8089 62.9501 67.4611C62.86 66.7149 62.4129 65.9036 62.4129 65.1756C62.4129 63.6985 62.4129 62.2214 62.4129 60.7443C62.4129 59.2643 62.7778 57.746 62.7778 56.2851C62.7778 55.6884 62.9602 55.1859 62.9602 54.6059C62.9602 54.1519 62.8192 53.4379 63.0008 53.02C63.5215 51.822 63.1427 49.9356 63.1427 48.6448C63.1427 46.9687 63.1427 45.2926 63.1427 43.6165C63.1427 42.3547 63.3251 41.0483 63.3251 39.8383C63.3251 39.1163 63.5958 37.9479 62.7778 37.5714" stroke="black" stroke-width="4" stroke-linecap="round"/>
<path d="M94.0435 72.7223C91.6945 72.8691 89.5723 73.7951 87.447 74.706C85.0114 75.7498 92.6553 73.7042 95.2173 73.0275C97.2079 72.5017 99.2132 72.0129 101.227 71.5837C103.24 71.1547 101.215 72.1101 100.499 72.5814C95.8741 75.6272 91.4543 79.2838 87.3765 83.0279C86.7566 83.5972 86.0693 84.181 85.5337 84.8355C85.4095 84.9874 87.3484 83.9417 87.4939 83.8496C90.8095 81.7511 94.308 79.9421 97.5883 77.793C100.394 75.955 91.6914 81.0133 88.9259 82.9106C83.9912 86.296 79.1536 89.8229 74.16 93.1223C74.1504 93.1286 73.5707 93.4949 73.6905 93.3923C74.8609 92.389 75.7518 90.7278 76.6953 89.5306C78.6917 86.9975 80.7422 84.5077 82.705 81.9481C83.6306 80.741 85.6491 78.9715 86.0854 77.4643C86.2235 76.9873 85.0688 77.603 84.6534 77.8751C82.3155 79.4068 79.9851 80.9758 77.6813 82.5584C75.8706 83.8023 74.1443 85.183 72.2585 86.3145C71.8305 86.5712 70.513 87.5092 71.2021 86.3849C74.7027 80.6733 79.7249 75.6956 84.0431 70.5978C84.3858 70.1931 86.3477 68.4689 86.2028 67.7925C86.1301 67.4534 84.6908 68.2536 84.536 68.3324C84.4114 68.3959 83.6386 68.9595 83.5031 68.7902C83.1723 68.3767 84.4674 66.5416 84.6065 66.3135C85.0113 65.6496 90.175 58.8528 89.7241 58.4493C89.3226 58.0901 87.8475 59.0766 87.5526 59.2357C85.7255 60.2218 83.9053 61.2061 82.0477 62.1349C81.1477 62.5849 80.2661 63.1354 79.348 63.5435C79.0251 63.687 80.5928 61.8063 80.733 61.642C81.8052 60.386 82.8337 59.1051 83.9492 57.8859C84.0992 57.7219 85.0335 56.3825 85.0055 56.3952C82.5225 57.5239 80.5294 59.7749 78.0803 61.0551C78.0123 61.0907 76.9535 61.6734 76.9535 61.5833C76.9535 60.8531 77.9179 60.0599 78.2916 59.5057C78.6562 58.9651 80.7959 56.3666 78.902 57.1817C78.5454 57.3351 74.4974 59.3752 74.4299 59.0714C74.2657 58.3324 75.8996 56.3762 76.2493 55.7027C77.5776 53.1444 71.8557 56.5401 72.4932 54.5524C72.6008 54.217 74.0219 51.4373 73.8313 51.3011C73.1111 50.7867 70.6189 52.3936 69.8405 52.604C68.9524 52.844 69.9723 51.6133 70.1574 51.2894C70.7074 50.3269 69.8589 50.5382 69.1128 50.5382C68.1742 50.5382 67.9928 50.6749 68.3733 49.7869C68.7137 48.9926 69.3241 48.2624 69.3241 47.369" stroke="black" stroke-width="4" stroke-linecap="round"/>
<path d="M94.6774 62.7923C96.0016 62.7187 96.4666 62.4585 95.053 63.8721C94.1989 64.7262 93.2544 65.4829 92.4003 66.337C91.9019 66.8354 91.4597 67.2717 92.4472 67.0178C94.4687 66.498 96.552 65.4728 98.3395 64.4003C99.0339 63.9837 98.1461 64.9611 97.9522 65.1163C97.8035 65.2352 100.164 64.8004 100.546 64.6937C101.745 64.3596 101.526 64.4179 100.828 65.1163C100.101 65.843 103.536 65.2195 103.88 65.1633C105.41 64.9129 103.998 65.5023 104.067 66.1257C104.081 66.2432 105.162 66.1165 105.335 66.2901C105.734 66.6893 104.819 67.7863 104.819 68.2855C104.819 68.6675 106.202 68.6961 106.497 68.8254C107.23 69.1462 106.696 70.1889 106.403 70.7152C106.117 71.2302 108.196 71.0321 108.528 71.0321C109.58 71.0321 108.353 72.0897 108 72.4875C106.489 74.187 111.801 71.5553 109.044 72.9336" stroke="black" stroke-width="4" stroke-linecap="round"/>
<path d="M67.8451 67.0178C68.295 67.0178 69.7824 66.7115 69.4062 67.4638C69.1826 67.911 68.4087 68.8969 69.371 68.9193C69.8666 68.9308 71.4368 68.7358 71.4368 69.471C71.4368 69.7891 70.8887 72.0374 70.8969 72.0415C71.6139 72.4 72.6685 71.882 73.4322 72.1002C73.8031 72.2062 72.4347 74.2804 72.3289 74.5768C71.9891 75.5281 73.2491 74.551 73.4087 74.8703C73.8346 75.722 70.1924 79.0374 69.5353 79.6944" stroke="black" stroke-width="4" stroke-linecap="round"/>
<path d="M67 57.299C67 58.097 66.6424 58.1185 67.6338 57.7685C67.6416 57.7658 66.9558 58.778 67.7982 58.778C68.9735 58.778 67.8828 59.3888 68.4789 59.9517C68.6695 60.1317 69.2379 59.9024 69.3123 60.163C69.3966 60.4579 69.2473 60.5355 69.5353 60.6795" stroke="black" stroke-width="4" stroke-linecap="round"/>
<path d="M68.2677 93.4275C67.3433 93.4275 70.0603 92.0529 69.8288 91.9603C69.5662 91.8553 69.1781 92.2293 69.7466 92.1481C70.0599 92.1033 70.5374 91.9485 69.9579 91.9485" stroke="black" stroke-width="4" stroke-linecap="round"/>
<path d="M105.664 76.314C105.068 76.314 103.732 76.6494 104.654 76.1027C105.773 75.44 104.026 76.6845 103.762 76.9479" stroke="black" stroke-width="4" stroke-linecap="round"/>
<path d="M115.383 72.9336C115.632 72.7119 117.213 71.7483 116.439 72.1354C115.848 72.4307 116.645 71.0377 115.805 71.8772" stroke="black" stroke-width="4" stroke-linecap="round"/>
</svg>
