<svg width="366" height="119" viewBox="0 0 366 119" fill="none" xmlns="http://www.w3.org/2000/svg">
<path d="M34.2391 6.75405H361.059V83.3148C361.059 98.7788 348.523 111.315 333.059 111.315H6.23907V34.754C6.23907 19.2901 18.7751 6.75405 34.2391 6.75405Z" stroke="black" stroke-width="4"/>
<path d="M41.3846 6.09032C42.5738 4.97172 43.0106 5.04383 42.3376 6.53854C42.0853 7.09877 43.6483 5.99105 43.8624 6.18993C44.6983 6.96654 43.9261 6.83824 45.2442 6.18993C45.4753 6.07627 46.95 6.11025 47.4837 5.99072C48.3361 5.79982 49.8037 5.13722 49.9615 6.53854C50.0728 7.52721 51.4986 6.60489 52.0104 7.08636C53.7337 8.70741 57.1262 7.43497 59.7296 7.43497C60.1437 7.43497 61.0638 7.22582 61.0638 7.90809C61.0638 8.3006 60.6453 8.69085 61.1115 8.43101C61.9317 7.9738 62.565 7.72204 63.5416 7.43497C65.6398 6.81818 71.2617 4.30785 73.3574 5.29349C74.2742 5.72471 72.4907 8.05074 73.1191 7.43497C74.9046 5.68552 74.7028 8.19337 76.121 7.53458C77.5423 6.87435 77.2554 7.33917 78.2653 7.78359C78.9754 8.09612 80.4083 7.35927 81.1004 7.23576C82.6217 6.9643 84.1716 6.88101 85.6986 6.63814C87.1144 6.41296 86.401 8.01676 87.6998 7.43497C88.2403 7.19288 90.5666 6.37545 90.7018 7.43497C90.8135 8.31073 98.0858 7.43497 98.6592 7.43497C99.6472 7.43497 100.349 7.9162 101.423 7.88319C102.521 7.84944 103.46 7.43497 104.615 7.43497C106.989 7.43497 110.381 8.37876 112.573 7.53458C112.839 7.43197 114.246 7.85586 114.717 7.88319C115.04 7.90191 115.124 8.2816 115.384 8.2816C115.655 8.2816 116.079 7.74274 116.337 7.98279C117.701 9.25019 120.515 7.36526 122.436 7.08636C122.883 7.02157 124.65 6.66474 124.962 7.23576C125.039 7.37705 124.918 8.11048 125.105 8.1322C130.282 8.73342 135.697 6.98676 140.877 6.98676" stroke="black" stroke-width="6" stroke-linecap="round"/>
<path d="M141.306 6.98673C142.389 6.98673 144.88 7.51921 145.689 6.98673C148.361 5.22856 150.719 5.14636 153.575 4.27253C154.13 4.10277 157.941 2.50916 158.364 3.15199C158.708 3.67547 158.425 4.17944 158.983 4.64605C159.394 4.98902 160.283 4.65746 160.77 4.77055C161.468 4.93257 161.415 5.64208 162.772 5.64208C167.377 5.64208 171.82 6.0903 176.471 6.0903C177.018 6.0903 179.875 5.44096 180.235 5.74169C180.796 6.21101 180.2 6.7468 181.379 6.43891C183.641 5.84791 185.526 5.64208 187.835 5.64208C191.907 5.64208 195.865 4.74565 199.962 4.74565C203.15 4.74565 206.198 5.64208 209.254 5.64208C210.695 5.64208 212.078 5.19387 213.518 5.19387C214.177 5.19387 214.442 5.7241 215.115 5.84129C216.68 6.114 218.802 5.64208 220.451 5.64208C221.196 5.64208 221.733 5.4872 221.952 6.28951C222.14 6.9779 223.443 6.1401 223.811 6.1401C225.327 6.1401 227.465 6.53852 229.219 6.53852" stroke="black" stroke-width="6" stroke-linecap="round"/>
<path d="M229.648 6.53854C234.06 6.53854 238.077 7.23794 242.06 5.89112C242.869 5.61753 244.116 5.02261 244.991 5.29349C245.352 5.40529 245.138 6.33933 245.515 6.33933C246.985 6.33933 249.952 4.10379 251.519 3.50063C252.016 3.3091 254.135 3.75821 254.949 3.62513C256.668 3.34443 258.037 3.84924 259.476 3.84924C260.58 3.84924 261.337 4.29746 262.311 4.29746C264.476 4.29746 266.581 3.69792 268.506 4.47176C269.677 4.94248 272.044 4.29746 273.39 4.29746C276.9 4.29746 280.41 4.29746 283.92 4.29746C285.954 4.29746 288.091 4.74567 290.305 4.74567C292.161 4.74567 294.12 4.74567 296.119 4.74567C298.871 4.74567 302.153 3.41725 304.695 4.74567" stroke="black" stroke-width="6" stroke-linecap="round"/>
<path d="M308.126 6.53851C309.339 5.39756 313.667 6.30304 314.654 7.33534C315.48 8.19801 318.798 6.85023 319.61 6.63812C321.442 6.15944 323.219 6.0903 325.09 6.0903C327.336 6.0903 329.794 6.46056 331.808 6.53851C333.694 6.61152 335.42 6.9474 337.073 6.56341C338.151 6.3131 344.406 5.12776 344.578 6.0903C344.855 7.63302 356.767 1.63468 357.825 4.12312C358.474 5.65109 359.835 3.28213 359.135 5.84129C358.757 7.22455 356.399 10.3612 357.539 11.8175C357.953 12.3463 358.354 11.7699 358.301 12.8135C358.26 13.6332 357.663 14.4026 357.896 15.2538C358.056 15.8383 358.73 15.2777 358.73 16.2001C358.73 16.966 358.387 18.8073 358.825 19.4372C359.081 19.8042 359.001 20.5171 359.254 20.7818C359.717 21.2652 360.714 20.3842 360.85 21.3795C361.2 23.9338 360.817 26.7102 360.874 29.298C360.894 30.2021 361.177 30.6294 361.637 31.29C362.353 32.32 361.732 35.7449 361.732 36.9674C361.732 39.0805 362.161 40.6067 362.161 42.7445C362.161 46.0867 361.393 49.0013 360.874 52.2566" stroke="black" stroke-width="6" stroke-linecap="round"/>
<path d="M360.874 53.153C360.377 56.0121 358.73 58.4612 358.73 61.2209C358.73 62.6017 358.804 63.2001 359.183 64.981C359.493 66.4409 359.56 68.1493 360.35 69.3884C360.963 70.3488 359.383 75.0731 359.254 76.2611C359.1 77.6814 359.111 78.8923 359.111 80.0958C359.111 81.8953 358.607 83.9445 358.11 85.6487C357.633 87.2888 356.764 89.5783 356.586 91.2515C356.28 94.124 354.055 99.2971 351.44 100.664" stroke="black" stroke-width="6" stroke-linecap="round"/>
<path d="M351.44 100.664C348.917 100.664 348.272 103.062 346.293 104.598C345.345 105.335 342.255 108.371 340.337 108.657C339.373 108.801 333.857 112.909 333.857 111.197C333.857 109.168 328.319 113.448 327.52 111.869C326.388 109.635 323.472 114.155 322.183 112.318C321.677 111.597 319.149 112.524 318.514 112.766C316.808 113.414 317.803 112.559 316.87 112.343C315.031 111.915 313.479 114.53 312.82 112.118C312.643 111.472 311.176 112.722 311.176 112.069C311.176 111.102 311.138 111.499 310.175 111.77C309.103 112.072 307.835 111.17 306.744 111.521C305.959 111.773 305.667 112.006 305.029 111.521C303.859 110.631 300.134 112.839 299.097 113.214C297.992 113.614 290.509 117.261 291.425 113.911C291.882 112.241 290.486 113.139 289.257 113.214C288.895 113.236 289.324 112.638 288.399 112.865C288.006 112.962 286.255 114.178 286.255 113.214C286.255 112.43 286.886 111.694 285.826 112.218C285.3 112.479 283.102 113.612 283.491 112.118C283.729 111.207 283.288 111.498 282.634 111.596C282.147 111.668 283.305 109.681 281.538 110.525C280.678 110.935 279.623 111.219 278.869 111.77C278.537 112.013 278.766 109.836 277.654 110.126C275.477 110.695 274.247 113.278 274.247 109.877C274.247 107.765 270.528 112.117 270.388 109.628C270.32 108.426 266.368 112.399 265.337 111.322C264.72 110.677 265.526 109.63 264.193 110.624C263.9 110.844 261.15 112.859 260.977 112.044C260.92 111.774 261.132 110.139 260.715 110.326C260.494 110.425 259.286 111.247 259.286 110.699C259.286 109.959 260.048 109.116 260.048 108.508C260.048 107.648 257.603 109.105 257.427 109.18C256.691 109.495 254.447 110.789 253.663 110.425C253.181 110.201 253.044 109.119 252.472 110.077C252.35 110.28 247.703 111.297 246.849 111.396C245.719 111.528 245.944 110.796 245.944 109.852C245.944 108.43 245.229 108.653 243.99 108.757C242.117 108.913 240.287 110.475 238.487 110.475C237.851 110.475 237.422 109.931 236.509 110.176C235.372 110.482 234.309 111.156 233.174 111.521C232.294 111.804 232.968 110.94 232.125 110.973C231.571 110.994 229.697 112.301 229.648 111.421C229.602 110.606 229.829 109.84 228.766 110.326C227.573 110.871 226.387 111.165 225.192 111.645C224.158 112.061 224.917 111.193 224.263 110.998C223.487 110.766 223.249 111.82 222.595 111.82C222.087 111.82 222.522 110.566 221.5 111.073C220.495 111.57 219.612 112.4 218.498 112.666C216.791 113.074 217.78 111.505 216.973 111.023C216.163 110.539 213.225 112.384 212.494 112.766" stroke="black" stroke-width="6" stroke-linecap="round"/>
<path d="M208.205 109.628C209.176 109.741 209.439 112.118 208.634 112.118C208.339 112.118 208.231 111.405 208.182 111.222C208.04 110.706 207.304 111.176 207.014 110.873C205.856 109.663 203.699 110.077 201.773 110.077C196.712 110.077 191.642 109.821 186.668 109.628C185.344 109.577 184.178 109.635 182.904 109.977C181.171 110.443 180.801 110.768 179.806 109.728C179.345 109.246 176.617 109.599 175.947 109.628C174.17 109.707 172.514 110.525 170.729 110.525C170.186 110.525 170.077 110.105 169.609 110.077C168.558 110.012 167.928 109.567 166.846 109.628C166.361 109.656 163.742 110.688 163.629 110.276C163.458 109.65 163.357 109.51 162.653 109.728C160.988 110.244 159.859 110.163 158.459 110.077C157.757 110.033 157.222 110.373 156.553 110.5C155.93 110.618 155.54 110.006 154.933 110.176C152.199 110.946 148.968 111.18 146.452 112.417C146.258 112.513 144.149 112.344 143.879 112.218C141.806 111.255 141.731 111.394 139.114 112.218C138.53 112.402 136.588 113.351 136.588 112.094C136.588 111.412 136.24 111.31 135.635 111.521C133.893 112.128 133.23 111.869 131.776 111.869C130.693 111.869 129.784 112.716 128.726 112.716C128.387 112.716 128.296 111.709 128.107 111.421C127.209 110.056 122.286 114.299 122.008 111.969C121.811 110.329 119.548 112.982 119.434 110.973C119.358 109.616 116.186 111.869 115.575 111.869C114.769 111.869 115.527 110.766 115.527 110.35C115.527 109.7 114.589 110.349 114.384 110.326C113.998 110.281 114.662 109.291 114.455 109.205C113.665 108.875 112.476 110.067 111.811 110.326C110.308 110.91 110.951 109.78 110.786 109.006C110.613 108.19 109.193 109.877 108.904 109.877C108.292 109.877 109.255 108.217 108.213 108.558C106.841 109.006 105.514 109.7 104.091 109.977C102.907 110.207 103.556 109.401 102.9 109.205C102.523 109.093 101.915 109.677 101.852 109.18C101.754 108.413 100.317 109.18 99.7076 109.18" stroke="black" stroke-width="6" stroke-linecap="round"/>
<path d="M95.4191 110.973C95.606 109.216 95.5099 110.467 94.9426 109.429C94.7555 109.087 91.7386 109.664 91.1307 109.628C89.0554 109.508 87.4094 109.557 85.1745 110.077C83.9959 110.35 82.9477 109.916 81.6961 110.425C80.8752 110.759 79.4087 109.938 78.0986 110.699C77.6794 110.942 75.4724 110.973 74.8346 110.973C72.4124 110.973 69.9902 110.973 67.568 110.973C66.7426 110.973 65.5915 111.19 64.7805 110.948C64.2679 110.795 64.7723 110.006 64.447 109.728C63.3747 108.811 60.7478 111.058 59.825 109.852C59.2698 109.127 55.9399 109.628 55.1077 109.628C53.1066 109.628 51.0538 109.497 49.08 109.877C47.3558 110.209 43.0009 112.042 42.147 110.525C40.802 108.135 35.256 113.367 33.7369 112.044C33.4627 111.805 33.7509 111.112 33.4272 110.774C32.801 110.119 31.3674 110.76 30.6635 110.873C28.7883 111.175 27.1542 110.525 25.2791 110.525C23.2787 110.525 21.2975 111.049 19.4183 110.973C17.5115 110.896 14.5814 111.901 12.8903 111.396C12.4958 111.279 12.694 110.61 12.6282 110.301C12.4138 109.292 10.738 109.624 10.079 109.728C8.27312 110.013 7.11299 110.768 6.62438 108.981C6.34861 107.972 3.75511 109.606 3.64628 108.184C3.51857 106.516 7.82526 93.69 6.21935 93.4926C4.65916 93.3007 5.79051 88.491 5.79051 87.2424C5.79051 85.6622 4.11707 86.8495 4.07513 84.8768C4.02881 82.6984 5.04587 80.3476 4.5278 78.4524C3.97792 76.4409 5.16767 74.6994 5.36166 72.8746C5.50161 71.5582 6.21935 70.5312 6.21935 69.0647C6.21935 67.5903 4.98224 68.374 4.93282 67.496C4.83087 65.6846 4.36253 64.0628 3.64628 62.5656" stroke="black" stroke-width="6" stroke-linecap="round"/>
<path d="M3.64626 62.1174C3.64626 60.4835 3.21742 59.1029 3.21742 57.2866C3.21742 53.9147 3.57574 50.7516 3.97981 47.4258C4.17999 45.7782 3.62288 46.5699 3.05065 45.7326C2.66717 45.1714 4.56786 41.5667 5.17105 41.0263C6.45972 39.8718 7.12467 38.5106 7.12467 37.1916C7.12467 36.2048 10.4094 31.8733 9.12595 31.29C7.86842 30.7186 8.68871 29.4342 8.03001 28.4015C6.42865 25.891 11.2201 20.5652 12.9856 19.2878C18.1832 15.5269 25.0102 13.1241 29.377 7.90807C30.4079 6.67658 33.0484 5.16843 34.5231 6.53851C35.1852 7.15366 37.0724 7.33258 37.9539 7.43495C40.2337 7.69971 41.9318 7.08828 44.3865 6.53851" stroke="black" stroke-width="6" stroke-linecap="round"/>
</svg>
